<?xml version="1.0" encoding="utf-8"?>
<!-- Generator: Adobe Illustrator 22.0.0, SVG Export Plug-In . SVG Version: 6.00 Build 0)  -->
<svg version="1.1" id="Layer_1" xmlns="http://www.w3.org/2000/svg" xmlns:xlink="http://www.w3.org/1999/xlink" x="0px" y="0px"
	 viewBox="0 0 1737.2 925.6" style="enable-background:new 0 0 1737.2 925.6;" xml:space="preserve">
<style type="text/css">
	.st0{fill:#FFFFFF;}
</style>
<path class="st0" d="M363.3,822.3c-146,0-264.5-121.6-264.5-271.5c0-147.2,114.2-266.7,256.5-271l-0.2,266.6l190.6,200.8
	C498.2,793.5,434,822.3,363.3,822.3 M374.8,176.2C168.2,176.1,0.1,344.2,0,550.8c-0.1,206.6,168,374.8,374.6,374.8
	c206.6,0.1,374.8-168,374.8-374.5C749.5,344.5,581.4,176.4,374.8,176.2"/>
<path class="st0" d="M315.7,91.1h14.9v42.2c14.4-1.3,28.8-2.1,43.5-2.1c14.8,0,29.3,0.8,43.6,2.1V91.2h14.9
	c18.1,0,32.9-11.7,32.9-25.8l0.1-39.6c0-14.1-14.9-25.8-32.9-25.8h-117c-18.1,0-32.9,11.6-32.9,25.8v39.5
	C282.9,79.5,297.6,91.1,315.7,91.1"/>
<path class="st0" d="M704.8,285.8l40.2-47.7c10.5-12.6,8.7-31.6-4-42.1l-53.1-44.2c-12.7-10.6-31.7-8.7-42.2,3.9l-38,45.2
	C644.1,224.2,676.8,252.8,704.8,285.8"/>
<path class="st0" d="M1001.3,354.7c-2,0-5.4-2.5-5.4-6.4v-16.1c0-2.9,2.9-6.4,5.4-6.4h251.2c2.5,0,5.4,3.4,5.4,6.4v16.1
	c0,3.9-3.4,6.4-5.4,6.4h-108v328c0,3.9-2,6.4-3.9,6.4h-22.5c-2.5,0-4-2.9-4-6.4v-328H1001.3z"/>
<path class="st0" d="M1392.6,684.1c0,2.9-2,4.8-3.9,4.8h-22.5c-2.5,0-3.9-2.4-3.9-4.8V330.7c0-2.5,1.4-4.9,3.9-4.9h22.5
	c1.9,0,3.9,2,3.9,4.9V684.1z"/>
<path class="st0" d="M1667.8,661.1c23,0,39.2-18.6,39.2-36.7V390.3c0-18.1-16.1-36.6-39.2-36.6h-124.6v307.4L1667.8,661.1
	L1667.8,661.1z M1517.8,689c-2.9,0-4.9-3.4-4.9-6.8V332.7c0-3.9,2.5-6.8,4.9-6.8h154.4c40.6,0,65,34.2,65,66.9V622
	c0,32.7-24.4,66.9-65,66.9L1517.8,689L1517.8,689z"/>
</svg>
